<?xml version="1.0" encoding="utf-8"?><svg xmlns="http://www.w3.org/2000/svg" xmlns:xlink="http://www.w3.org/1999/xlink"><symbol viewBox="0 0 1.998 3.412" id="arrow-right" xmlns="http://www.w3.org/2000/svg"><path d="M.623 2.538l.848-.875-.793-.76C.242.485-.055.083.018.01c.074-.073.55.269 1.057.76l.923.895-.847.874c-.465.48-.965.873-1.11.873-.146 0 .116-.393.582-.874z"/></symbol><symbol viewBox="0 0 40.096 10.584" id="barneys" xmlns="http://www.w3.org/2000/svg"><path d="M25.797 10.397c-.877-.323-1.323-.973-1.323-1.93 0-.997.617-1.851 1.337-1.851.221 0 .133.164-.22.411-.898.63-.821 2.28.14 2.998.746.556.759.626.066.372zm7.02-.677l-.935-.935v.767c0 .438-.142.768-.33.768-.233 0-.331-.547-.331-1.852 0-1.83.008-1.853.706-1.853.388 0 .894.073 1.124.161.532.204.548 1.394.022 1.596-.55.21-.5.435.28 1.277 1.01 1.09.545 1.152-.536.07zm-.009-2.046c0-.413-.17-.687-.463-.744-.361-.07-.463.093-.463.744 0 .65.102.813.463.743.292-.056.463-.33.463-.743zm6.033 1.984c-.51-.51-.953-.926-.986-.926-.033 0-.008.357.056.794.081.55.006.794-.244.794-.27 0-.36-.465-.36-1.852 0-1.388.09-1.853.36-1.853.25 0 .325.243.244.794-.064.437-.026.794.084.794s.456-.357.766-.794c.311-.436.7-.794.864-.794.164 0-.087.398-.558.884l-.856.883 1.069 1.101c.588.606.938 1.101.778 1.101-.16 0-.708-.416-1.217-.926zM0 8.368c0-2.242.156-2.297 1.482-.522l.9 1.203.08-1.217c.131-1.982.609-1.418.538.636-.035 1.018-.129 1.847-.209 1.842-.08-.006-.621-.69-1.204-1.522L.53 7.277.45 8.798C.336 10.992 0 10.671 0 8.368zm6.218.1V6.616H7.26c.574 0 1.112.112 1.197.248.091.148-.225.188-.778.098-.869-.14-.932-.104-.932.545 0 .597.113.696.794.696.436 0 .793.12.793.265 0 .145-.357.264-.793.264-.68 0-.794.1-.794.69 0 .634.077.682.926.583.51-.06.926-.013.926.103 0 .117-.536.212-1.19.212H6.217zm5.74.33c-.261-.837-.54-1.67-.617-1.852-.08-.187.048-.33.294-.33.24 0 .377.093.306.207-.07.115.076.67.325 1.235l.453 1.027.363-1.103c.2-.606.44-1.102.532-1.102.092 0 .329.566.527 1.257l.36 1.257.419-1.39c.23-.763.523-1.388.65-1.388.126 0 .144.208.04.463-.103.254-.37.998-.592 1.653-.584 1.721-.752 1.773-1.125.348l-.333-1.274-.352.794c-.193.436-.357 1.002-.364 1.257-.023.908-.416.438-.885-1.059zm7.752.53c0-.546-.236-1.38-.525-1.853-.288-.473-.405-.86-.26-.86.146 0 .491.372.767.826l.502.826.44-.85c.242-.468.504-.786.582-.708.079.079-.121.571-.444 1.094-.382.618-.548 1.226-.473 1.734.078.532.002.783-.236.783-.23 0-.352-.345-.353-.992zm7.41.463c.715-.716.666-1.74-.12-2.526-.431-.43-.524-.65-.275-.65.592 0 1.453 1.092 1.453 1.844 0 .82-.674 1.86-1.205 1.86-.284 0-.246-.135.147-.528zM.265 3.767C.119 3.66 0 2.77 0 1.787V0h.828c1.055.001 1.645.64 1.22 1.322-.24.381-.222.515.081.631.466.18.504.998.067 1.435-.51.51-.774.365-.412-.228.284-.466.257-.601-.18-.926C.79 1.632.598 1.777.706 2.91c.102 1.073.033 1.206-.442.856zM1.588.927c0-.287-.209-.562-.464-.611C.778.249.661.403.661.927s.117.678.463.611c.255-.049.464-.324.464-.611zM13.94 3.176c-.848-.967-1.074-1-.908-.132.085.444.008.66-.235.66-.271 0-.362-.463-.362-1.852V.001h.807c1.366 0 1.864.947 1 1.902-.416.46-.398.534.314 1.278.416.434.604.789.419.789-.186 0-.652-.357-1.035-.794zm.083-2.117c0-.412-.171-.687-.463-.743-.362-.07-.463.093-.463.743s.101.813.463.744c.292-.057.463-.331.463-.744zm11.575 2.735c-.22-.088-.33-.747-.33-1.963V.001h1.058c.582 0 1.058.098 1.058.219 0 .12-.357.166-.793.102-.743-.109-.794-.061-.794.738 0 .769.066.842.661.728.364-.07.662-.024.662.102 0 .125-.298.228-.662.228-.529 0-.661.132-.661.661 0 .582.113.662.942.662.56 0 .875.107.778.264-.169.272-1.331.326-1.919.09zM6.25 2.316L7.014.398c.19-.474.253-.433.606.397 1.202 2.822 1.228 2.91.862 2.91-.195 0-.43-.298-.52-.661-.235-.932-1.402-.932-1.636 0-.091.363-.27.661-.398.661-.127 0 .017-.625.321-1.389zm1.288-.397c-.006-.253-.516-1.052-.521-.815-.003.097-.077.365-.165.595-.106.275-.015.419.264.419.234 0 .424-.09.422-.199zm10.852-.066c0-1.019.11-1.852.244-1.852s.728.566 1.32 1.257l1.078 1.257.002-1.257c0-.691.091-1.257.2-1.257.11 0 .199.833.199 1.851 0 1.019-.06 1.847-.133 1.841-.073-.006-.608-.657-1.19-1.447S18.99.806 18.918.8c-.073-.004-.092.648-.042 1.449.058.931-.013 1.455-.198 1.455-.182 0-.29-.689-.29-1.852zm13.7.992c.07-.604-.101-1.155-.575-1.852-.37-.546-.563-.992-.428-.992.258 0 .582.324 1.156 1.157.321.465.364.445.685-.33.188-.455.459-.827.601-.827.142 0 .009.424-.297.941-.305.518-.555 1.351-.555 1.852 0 .571-.128.911-.344.911-.232 0-.311-.28-.244-.86zm5.35.58c0-.154.119-.207.264-.117.146.09.265.216.265.28 0 .065-.12.117-.265.117-.145 0-.264-.126-.264-.28zm1.504-.315c.082-.448-.092-.707-.698-1.046-.892-.499-1.12-1.621-.388-1.902.63-.242 1.382-.194 1.563.1.1.161-.145.199-.645.099-.661-.132-.807-.075-.807.315 0 .262.373.788.829 1.17.647.54.788.82.643 1.275-.242.765-.636.756-.497-.011z"/></symbol><symbol viewBox="0 0 34.396 18.538" id="billabong" xmlns="http://www.w3.org/2000/svg"><path d="M0 15.73v-2.79l1.648.078c1.525.073 1.668.133 1.9.798.197.562.152.83-.204 1.225-.403.445-.408.522-.048.66.26.1.408.492.408 1.077 0 1.197-.763 1.743-2.44 1.743H0zm3.024 1.846c.882-.882.068-1.966-1.477-1.966H.529v2.381h1.04c.592 0 1.218-.178 1.455-.415zm.114-3.169c.127-.644-.658-1.178-1.733-1.178-.821 0-.876.057-.876.909 0 .792.093.92.728 1 1.017.13 1.769-.163 1.88-.73zm1.07 4.048c-.013-.037-.077-1.287-.143-2.778-.078-1.78-.024-2.712.157-2.712.174 0 .276 1.027.276 2.778 0 1.528-.06 2.778-.132 2.778-.073 0-.144-.03-.157-.066zm.82-2.712c0-1.676.104-2.778.264-2.778.158 0 .264 1.02.264 2.53v2.529l.966-.082.965-.083-.055-2.447c-.036-1.583.044-2.447.225-2.447.178 0 .28.919.28 2.513 0 1.383.096 2.514.212 2.514.117 0 1.256-1.131 2.532-2.514 1.276-1.382 2.431-2.513 2.567-2.513.136 0 .246 1.242.246 2.778 0 1.675-.105 2.778-.265 2.778-.145 0-.264-.357-.264-.794 0-.79-.006-.794-1.535-.794-1.403 0-2.17.3-2.17.847 0 .116.365.212.81.212.472 0 .741.11.646.264-.092.15-1.37.265-2.926.265H5.027zm7.978-.53c.05-.8.02-1.455-.066-1.455-.187 0-2.357 2.542-2.357 2.76 0 .083.525.15 1.166.15h1.167zm1.215 3.157c-.109-.111-.198-1.432-.198-2.936V12.7h1.076c1.358 0 2.099.39 2.099 1.106 0 .53.034.522.651-.144 1.373-1.482 3.312-1.542 4.492-.139l.678.805v-.814c0-.682.102-.814.632-.814.497 0 .852.368 1.654 1.715.562.944 1.086 1.717 1.166 1.72.08.003.096-.77.035-1.715l-.11-1.72h.723c.652 0 .711.077.606.794-.145.986-.072.987.75.009.378-.449 1.033-.855 1.528-.948 1.064-.2 2.646.412 3.058 1.18.268.503.224.552-.492.552-.433 0-.861-.119-.951-.264-.32-.518-1.931-.298-2.367.323-1.206 1.723.478 3.653 2.317 2.655l.843-.457-1.188-.136c-.854-.098-1.213-.266-1.276-.6-.077-.405.144-.462 1.784-.462 2.07 0 2.214.156 1.47 1.596-.458.884-1.625 1.579-2.654 1.579-.879 0-2.19-.758-2.387-1.38-.24-.755-.516-.546-.514.388.002.682-.106.86-.522.86-.366 0-.847-.538-1.588-1.778-.584-.977-1.122-1.78-1.194-1.786-.073-.005-.133.795-.133 1.778 0 1.606-.053 1.786-.526 1.786-.377 0-.568-.226-.67-.794-.116-.642-.192-.715-.4-.381-.84 1.354-2.686 1.668-4.12.7-.86-.581-.915-.587-1.295-.132-.416.5-2.633.937-2.977.588zm1.879-1.142c.535-.339.25-1.209-.426-1.305-.473-.068-.593.044-.593.551 0 .941.334 1.188 1.019.754zm5.397-.508c.585-.503.599-1.844.026-2.478-.546-.603-1.876-.627-2.518-.046-.62.56-.631 1.998-.021 2.53.891.776 1.604.774 2.513-.007zm-5.357-2.46c0-.325-.187-.502-.53-.502-.504 0-.75.749-.37 1.129.296.296.9-.125.9-.628zm17.065 3.996c-.244-.395.096-.794.677-.794.337 0 .514.182.514.53 0 .56-.886.758-1.19.264zM18.31 9.374l.08-1.474 1.8-.792c1.774-.78 3.502-1.028 4.192-.602.258.16.184.258-.281.368-.898.212-1.28.901-.814 1.464.539.649 1.905.343 3.653-.818 1.735-1.152 2.786-1.491 3.95-1.273.923.173 1.188.632.364.632-.636 0-1.145.61-.944 1.131.213.557.978.711 2.162.437 1.85-.43 1.925-.388 1.925 1.078v1.323H18.23zm5.12-4.965c-.686-.503-.423-1.349.452-1.45 1.027-.119.9-.521-.232-.733-.747-.14-1.4.003-2.977.651-1.11.457-2.108.83-2.217.83-.11-.002-.199-.836-.199-1.855V0h16.14v3.885l-1.023.306c-1.369.41-2.55.387-2.918-.056-.426-.513-.087-1.2.688-1.394.489-.123.566-.223.301-.39-.84-.533-2.242-.224-4.2.924-2.308 1.354-3.165 1.608-3.814 1.134z"/></symbol><symbol viewBox="0 0 28.55 18.247" id="converse" xmlns="http://www.w3.org/2000/svg"><path d="M.093 17.623c-.086-.344-.118-1.029-.071-1.522.083-.868.126-.899 1.342-.977.756-.048 1.257.03 1.257.199 0 .153-.417.279-.926.279-.904 0-.926.025-.926 1.058 0 1.033.022 1.058.926 1.058.51 0 .926.12.926.265 0 .145-.534.264-1.186.264-1.025 0-1.206-.084-1.342-.624zm3.763.448c-.097-.097-.177-.811-.177-1.587v-1.412h1.295c1.398 0 1.616.214 1.616 1.588 0 1.332-.232 1.587-1.44 1.587-.615 0-1.197-.079-1.294-.176zm1.94-1.429c0-1.017-.04-1.071-.728-.992-1.242.143-1.188 2.068.058 2.068.607 0 .67-.1.67-1.076zm1.81.018l-.09-1.588h2.513v1.588c0 .882-.117 1.587-.264 1.587-.146 0-.265-.595-.265-1.322 0-1.235-.044-1.323-.661-1.323-.618 0-.662.088-.662 1.323 0 1.866-.463 1.65-.572-.265zm3.927.175c-.536-1.7-.54-1.763-.095-1.763.193 0 .534.566.76 1.257l.408 1.257.354-1.257c.247-.877.492-1.257.81-1.257.425 0 .42.115-.078 1.588-.44 1.304-.641 1.587-1.125 1.587-.48 0-.672-.262-1.034-1.412zm3.63 1.046c-.077-.202-.103-.886-.057-1.521.083-1.155.083-1.155 1.207-1.237 1.304-.094 1.554.404.265.528-.473.046-.86.202-.86.348 0 .145.387.301.86.347.473.046.86.187.86.314s-.387.268-.86.314c-.473.046-.86.202-.86.347 0 .146.387.302.86.348 1.229.118 1.065.578-.207.578-.665 0-1.12-.138-1.207-.366zm3.586.3a78.332 78.332 0 0 1-.067-1.599l-.055-1.533 1.324.078c1.152.068 1.334.156 1.41.688.047.335-.052.776-.22.98-.17.202-.23.613-.136.91.248.78-.34.68-.705-.119-.166-.364-.461-.661-.656-.661-.202 0-.354.285-.354.661 0 .364-.12.661-.265.661-.145 0-.27-.03-.276-.066zM20.613 16c0-.247-.25-.397-.662-.397-.411 0-.661.15-.661.397 0 .246.25.396.661.396.412 0 .662-.15.662-.396zm1.852 2c0-.136.387-.284.86-.33 1.067-.103 1.098-.566.05-.747-.657-.114-.778-.257-.778-.926 0-.742.07-.796 1.124-.873 1.305-.094 1.554.404.265.528-1.067.103-1.099.566-.051.746.651.111.792.274.862.992.082.855.078.858-1.125.858-.664 0-1.207-.111-1.207-.247zm3.811-.118c-.077-.202-.103-.886-.058-1.521.083-1.155.084-1.155 1.208-1.237.665-.048 1.124.033 1.124.199 0 .154-.357.28-.794.28-.529 0-.793.132-.793.397 0 .264.264.396.793.396 1.07 0 1.015.475-.066.579-.473.046-.86.202-.86.347 0 .146.387.302.86.348 1.23.118 1.065.578-.206.578-.665 0-1.12-.138-1.208-.366zm-13.204-5.173c-1.206-.293-2.291-.936-3.228-1.912C6.727 7.546 8.105 1.884 12.387.354 16.377-1.072 20.853 2 20.87 6.178c.01 1.991-.517 3.335-1.84 4.7-1.638 1.688-3.807 2.354-5.959 1.83zm3.723-1.311c2.299-1.045 3.682-3.933 3.035-6.338-.383-1.422-2.104-3.344-3.368-3.761-1.473-.486-3.827-.202-5.053.609-1.187.785-2.439 2.989-2.437 4.288.007 4.088 4.174 6.859 7.823 5.202zm-4.65-1.707c0-.044.198-.657.438-1.362.482-1.414.514-1.347-1.245-2.568-.643-.446-.637-.45.85-.463l1.497-.014.339-1.323c.186-.728.413-1.323.503-1.323.09 0 .317.595.504 1.323l.339 1.323 1.497.014c1.487.014 1.492.017.85.463-1.718 1.192-1.735 1.22-1.373 2.333a30.8 30.8 0 0 0 .486 1.4c.083.205-.403-.025-1.08-.511l-1.231-.885-1.187.837c-.652.46-1.186.8-1.186.756z"/></symbol><symbol viewBox="0 0 4.198 4.233" id="dribbble" xmlns="http://www.w3.org/2000/svg"><path d="M.614 3.584C-.698 2.272.232 0 2.082 0c1.087 0 2.116 1.029 2.116 2.117 0 1.087-1.029 2.116-2.116 2.116-.516 0-1.058-.24-1.468-.65zm1.993-.078c-.002-.11-.112-.37-.245-.579-.198-.313-.312-.32-.654-.036-.228.19-.349.45-.27.579.177.284 1.175.315 1.169.036zm1.062-.876c0-.137-.178-.249-.397-.249-.409 0-.525.312-.227.61.211.212.624-.027.624-.36zM2.082 2c0-.031-.357-.004-.794.06-.768.113-.969.323-.631.66.132.132 1.425-.522 1.425-.72zm1.462-.401c-.086-.14-.331-.186-.545-.104-.547.21-.482.357.157.357.3 0 .474-.114.388-.253zm-1.896-.408C1.564.972 1.404.794 1.292.794 1.18.794.94.972.759 1.19c-.279.335-.223.396.356.396.5 0 .644-.107.533-.396zM2.732.775C2.648.64 2.393.53 2.166.53c-.336 0-.353.074-.087.394.342.412.918.281.653-.148z"/></symbol><symbol viewBox="0 0 1.743 3.969" id="facebook" xmlns="http://www.w3.org/2000/svg"><path d="M.06 2.634C-.149.884.19 0 1.062 0c.696 0 .94.64.337.883-.264.107-.264.138 0 .154.39.025.455 1.08.066 1.08-.145 0-.264.416-.264.926 0 .726-.106.926-.492.926-.395 0-.524-.267-.65-1.335z"/></symbol><symbol viewBox="0 0 10.864 13.249" id="game" xmlns="http://www.w3.org/2000/svg"><path d="M.537 12.71c-.495-.496-.53-.882-.53-6.086C.008-.539-.441.01 5.433.01c5.873 0 5.424-.549 5.424 6.614s.45 6.615-5.424 6.615c-4.013 0-4.409-.043-4.895-.53zm9.208-.582c.448-.449.448-10.559 0-11.007-.444-.444-8.182-.444-8.626 0-.448.448-.448 10.558 0 11.007.444.443 8.182.443 8.626 0zm-7.091-.843c0-.201-.238-.428-.53-.504-.596-.156-.725-.717-.164-.717.2 0 .553-.268.784-.595l.419-.596.173.596c.095.327.338.595.54.595.53 0 .443.314-.272.992-.725.688-.95.742-.95.23zm3.351.19c-.304-.304-.193-.617.22-.617.219 0 .398.178.398.396 0 .414-.313.525-.618.221zm2.11-.007c-.298-.298-.182-.61.227-.61.219 0 .397.112.397.249 0 .333-.413.572-.624.361zM6.409 9.515c.052-.156.208-.284.346-.284.138 0 .294.128.346.284.052.156-.104.284-.346.284-.243 0-.399-.128-.346-.284zm2.066.02c0-.146.178-.265.396-.265.219 0 .397.12.397.265 0 .145-.178.264-.397.264-.218 0-.396-.119-.396-.264zM1.756 7.793c-.303-.789-.176-5.545.157-5.878.4-.4 6.11-.437 6.844-.044.453.243.511.575.511 2.889 0 1.438-.072 2.803-.16 3.033-.24.626-7.112.626-7.352 0zM8.42 5.06c.056-1.603-.018-2.288-.265-2.444-.51-.323-5.174-.276-5.379.055-.13.211-.228 3.574-.135 4.624.007.077 1.293.107 2.857.066l2.844-.075z"/></symbol><symbol viewBox="0 0 3.871 3.664" id="google" xmlns="http://www.w3.org/2000/svg"><path d="M0 3.144c0-.286.248-.652.551-.814.507-.272.515-.321.107-.62C.394 1.517.251 1.124.306.74.386.176.55.083 1.588.019c.87-.053 1.083 0 .793.195-.344.232-.338.268.044.271.243.002.49-.144.55-.324.08-.236.24-.2.57.132.43.43.432.49.022.9-.372.372-.476.382-.671.067-.194-.315-.303-.302-.686.08-.43.43-.429.484.023.983.518.573.395 1.341-.216 1.341-.25 0-.333-.181-.242-.529.106-.403.008-.53-.406-.53-.74 0-.956.436-.382.77.404.236.368.274-.26.281C.179 3.662 0 3.537 0 3.144zM1.471.57C1.35.249 1.228.213 1.008.434c-.22.22-.204.41.065.734.41.495.67.106.399-.6z"/></symbol><symbol viewBox="0 0 36.699 5.556" id="gucci" xmlns="http://www.w3.org/2000/svg"><path d="M.973 4.796C.555 4.378.14 3.74.048 3.38-.2 2.39.54.899 1.531.385 3.028-.388 5.493.348 5.47 1.562c-.007.348-.058.336-.292-.066-.156-.268-.693-.659-1.194-.868C2.71.096 1.766.571 1.278 1.987c-.713 2.067.715 3.8 2.584 3.135.55-.197.69-.418.687-1.097-.002-.686.104-.85.55-.85.464 0 .533.128.434.8-.157 1.074-.965 1.581-2.515 1.581-1.062 0-1.417-.132-2.045-.76zm9.4.449a6.29 6.29 0 0 1-.662-.41c-.072-.064-.191-1.118-.264-2.343C9.322.396 9.346.264 9.844.264c.486 0 .522.147.442 1.83-.048 1.008.038 2.066.191 2.352.368.688 1.514.952 2.45.564.743-.308.753-.342.753-2.529 0-1.301.11-2.216.265-2.216.154 0 .264.875.264 2.097 0 1.95-.048 2.136-.697 2.646-.767.603-2.278.717-3.14.237zm8.679-.005c-.32-.155-.778-.694-1.017-1.199-.865-1.822.17-3.688 2.197-3.96 1.376-.185 2.976.537 2.967 1.338l-.006.565-.457-.581c-1.295-1.648-3.542-1.14-3.922.887-.462 2.462 1.723 3.877 3.577 2.317.61-.513.814-.583.814-.28 0 1.037-2.678 1.625-4.153.913zm8.68-.361C25.728 3.192 27.015 0 29.7 0c1.143 0 2.502.773 2.495 1.42l-.006.564-.457-.581C30.809.229 29.136.1 28.275 1.139c-.571.688-.666 2.146-.198 3.05.688 1.331 2.467 1.458 3.587.256.438-.47.537-.496.537-.144 0 1.328-3.1 1.73-4.469.578zm8.04-1.968c0-2.343.054-2.646.464-2.646.41 0 .463.302.463 2.645 0 2.344-.053 2.646-.463 2.646-.41 0-.463-.302-.463-2.645z"/></symbol><symbol viewBox="0 0 3.969 3.969" id="insta" xmlns="http://www.w3.org/2000/svg"><path d="M0 1.984V0h3.969v3.969H0zm1.504 1.16c-.263-.153-.583-.536-.71-.851-.204-.505-.233-.47-.248.287-.015.767.061.859.71.852.64-.007.67-.043.248-.288zm1.932-.3c-.002-.338-.088-.471-.199-.308-.107.158-.432.422-.723.587-.494.28-.48.301.198.309.582.006.727-.112.724-.588zm-.84-.797c.105-.547-.658-.916-1.061-.512-.404.403-.035 1.167.512 1.061a.75.75 0 0 0 .55-.55zM3.44.794a.265.265 0 0 0-.265-.265.265.265 0 0 0-.265.265.265.265 0 0 0 .53 0z"/></symbol><symbol viewBox="0 0 39.912 6.325" id="klein" xmlns="http://www.w3.org/2000/svg"><path d="M1.523 5.85C.709 5.347 0 4.054 0 3.074 0 2.243 1.015.731 1.86.303c1.245-.63 3.05-.245 3.952.842.604.728.09.747-.958.034C3.693.39 3.187.338 2.11.894 1.151 1.391.794 2.035.794 3.275c0 2.042 2.442 3.24 4.04 1.982 1.055-.83 1.483-.604.52.272-1.016.924-2.64 1.06-3.831.322zm6.018.146c-.842-.483-1.174-1.066-1.183-2.078-.015-1.712 1.763-2.857 3.176-2.046.633.363.73.36.992-.025.221-.324.293.176.298 2.087C10.83 6 10.772 6.37 10.5 6.012c-.288-.378-.398-.386-.836-.066-.606.444-1.404.462-2.123.05zm2.249-.74c.692-.692.672-1.797-.047-2.562-.723-.77-1.626-.782-2.324-.033-1.074 1.152-.328 3.125 1.18 3.125.364 0 .9-.238 1.19-.53zm1.852-1.984c0-1.852.103-3.042.264-3.042.161 0 .265 1.19.265 3.042 0 1.853-.104 3.043-.265 3.043-.16 0-.264-1.19-.264-3.043zm2.226 2.104c-1.18-2.826-1.429-3.602-1.119-3.498.18.06.628.843.998 1.742s.75 1.635.843 1.635c.093.001.241-.285.33-.635.318-1.272 1.221-3.098 1.458-2.951.134.083-.163 1.128-.659 2.322-.496 1.195-.902 2.206-.902 2.248 0 .042-.125.076-.278.076-.153 0-.455-.422-.67-.939zm3.065-1.31c0-1.323.11-2.249.265-2.249.156 0 .264.926.264 2.25 0 1.322-.108 2.248-.264 2.248-.156 0-.265-.926-.265-2.249zm1.323-.164c0-1.935.068-2.358.34-2.132.215.178.481.192.727.036.635-.4 1.441-.289 2.058.286.49.456.58.827.58 2.397 0 1.171-.098 1.797-.265 1.694-.146-.09-.265-.852-.265-1.694 0-1.148-.121-1.641-.484-1.97-1.206-1.091-2.162-.136-2.162 2.163 0 .913-.116 1.633-.264 1.633-.157 0-.265-.98-.265-2.413zm6.086-.63c0-1.852.103-3.042.264-3.042.147 0 .269.733.274 1.653l.009 1.654.848-1.058C27.01.894 28.05-.12 28.227.059c.087.086-.254.666-.758 1.289-1.42 1.753-1.416 1.69-.216 3.28.608.804 1.025 1.543.926 1.641-.18.18-.838-.492-1.903-1.943-.569-.775-.586-.78-.984-.26-.222.291-.408.916-.413 1.39-.004.472-.127.86-.273.86-.16 0-.264-1.191-.264-3.044zm4.402 2.86c-.093-.093-.169-1.46-.169-3.036 0-2.371.069-2.866.397-2.866s.397.498.397 2.895c0 2.646-.17 3.462-.625 3.007zm1.663-.59c-.528-.528-.774-1.039-.774-1.608 0-1.138 1.243-2.381 2.382-2.381.973 0 2.38 1.233 2.38 2.085 0 .493-.188.546-2.182.616l-2.183.077.716.727c.862.877 1.684.927 2.507.154.336-.316.701-.485.811-.375.11.11-.135.488-.543.84-1.026.883-2.145.834-3.114-.135zm3.303-2.203c-.739-1.299-1.643-1.582-2.695-.845-1.125.788-.746 1.175 1.147 1.175 1.313 0 1.69-.08 1.548-.33zm1.215.58c0-1.531.096-2.338.265-2.234.145.09.264 1.169.264 2.397 0 1.312-.109 2.233-.264 2.233-.157 0-.265-.975-.265-2.397zm1.323-.022c0-1.758.08-2.37.286-2.164.206.206.503.205 1.053-.003.645-.243.882-.203 1.5.257.665.496.74.722.81 2.437.05 1.187-.025 1.891-.198 1.891-.163 0-.276-.689-.276-1.679 0-1.29-.112-1.78-.484-2.116-1.198-1.085-2.162-.217-2.162 1.946 0 .854-.119 1.627-.264 1.717-.17.104-.265-.72-.265-2.286zM34.925.775c0-.3.12-.545.265-.545.145 0 .264.171.264.381s-.119.455-.264.545c-.146.09-.265-.082-.265-.381zM16.933.627c0-.219.12-.397.265-.397.145 0 .264.178.264.397 0 .218-.119.397-.264.397-.146 0-.265-.18-.265-.397z"/></symbol><symbol viewBox="0 0 28.782 13.656" id="levis" xmlns="http://www.w3.org/2000/svg"><path d="M24.433 13.307c-.143-.377-.113-.408.149-.148.18.18.262.393.18.474-.081.082-.23-.065-.329-.326zM1.416 6.814C.702 3.43.066.513.002.331-.09.069 2.89 0 14.334 0 27.02 0 28.782.049 28.782.398c0 .42-2.622 12.367-2.74 12.485-.039.038-.717-.191-1.51-.509-2-.804-6.297-.8-8.516.008l-1.521.554-1.522-.539c-.838-.296-2.548-.603-3.806-.682-2.13-.134-4.142.235-6.185 1.133-.157.07-.802-2.416-1.566-6.034zm10.796.515c.488-.574.486-.583-.106-.672-.33-.05-.877.058-1.214.238-.49.263-.694.261-1.019-.009-.726-.602-.434-.8 1.182-.8 1.396 0 1.587-.063 1.587-.515 0-.283-.278-.839-.62-1.235-.508-.592-.838-.72-1.848-.72-1.924 0-2.957 1.387-2.307 3.097.56 1.472 3.287 1.858 4.345.616zm-2.57-2.447c.18-.47.918-.415 1.082.079.07.207-.142.33-.565.33-.5 0-.634-.105-.518-.41zM7.614 7.408c0-.45-.176-.529-1.19-.529h-1.19V3.671l-.824.083-.823.082.015 1.919c.01 1.055.022 1.977.03 2.05.008.073.907.132 1.998.132 1.808 0 1.984-.047 1.984-.529zm8.202.43c0-.054.414-1.007.92-2.116l.92-2.018h-.67c-.545 0-.775.236-1.228 1.257L15.2 6.218l-.518-1.257c-.474-1.149-.595-1.257-1.411-1.257-.491 0-.893.058-.893.128s.443 1.023.984 2.117c.872 1.762 1.068 1.988 1.72 1.988.404 0 .735-.044.735-.099zm3.705-2.017V3.704h-1.588v4.233h1.588zM25.2 7.419c.801-.886.354-1.802-1.054-2.156-1.554-.391-1.55-.852.004-.619 1.188.178 1.542-.071.86-.605-.994-.777-2.93-.589-3.542.346-.561.856-.088 1.61 1.232 1.966.58.156 1.054.398 1.054.538 0 .337-.982.329-1.191-.01-.181-.293-1.455-.369-1.455-.087 0 1.143 3.183 1.63 4.091.627zm-4.092-3.88c0-.452-.148-.629-.53-.629-.352 0-.528.177-.528.53 0 .29.115.529.256.529.141 0 .178.208.083.463-.152.405-.118.418.273.1.245-.2.446-.647.446-.993z"/></symbol><symbol viewBox="0 0 11.642 12.965" id="logo" xmlns="http://www.w3.org/2000/svg"><path d="M4.233 11.377C2.87 9.803 2.846 9.79 1.43 9.79.643 9.79 0 9.717 0 9.63c0-.142 1.945-3.507 4.688-8.109C5.187.685 5.695 0 5.817 0c.194 0 5.825 9.345 5.825 9.667 0 .067-.647.123-1.437.123-1.427 0-1.447.011-2.818 1.587-.76.873-1.47 1.588-1.58 1.588-.109 0-.817-.715-1.574-1.588zm3.107-.33l1.369-1.39L7.524 5.85C6.872 3.755 6.389 1.99 6.45 1.93c.062-.062.488 1.116.946 2.617 1.627 5.322 1.369 4.836 2.613 4.928.607.045 1.104.01 1.104-.08 0-.089-.675-1.316-1.5-2.727a264.404 264.404 0 0 1-2.252-3.925C6.54 1.26 5.826.874 5.16 1.55 4.746 1.971.529 9.106.529 9.386c0 .305 2.14.122 2.242-.192.06-.182.61-1.938 1.22-3.902C4.604 3.327 5.147 1.84 5.2 1.989c.053.148-.432 1.92-1.076 3.94l-1.172 3.67 1.341 1.419c.738.78 1.417 1.417 1.51 1.417.093 0 .785-.625 1.538-1.389zm-1.607.947c-.28-.278-.197-9.436.088-9.877.17-.264.258 1.357.26 4.828.002 2.874-.035 5.226-.084 5.226-.048 0-.167-.08-.264-.177z"/></symbol><symbol viewBox="0 0 13.221 12.121" id="love" xmlns="http://www.w3.org/2000/svg"><path d="M3.572 8.88C-.045 4.712-.528 3.622.426 1.777c1.05-2.031 3.812-2.388 5.59-.723l.577.54.935-.714c1.828-1.394 4.096-1.073 5.2.737.58.952.66 2.414.178 3.267-.52.92-5.991 7.237-6.268 7.237-.14 0-1.519-1.459-3.066-3.241zm5.875-.872c2.832-3.317 3.309-4.304 2.741-5.675-.757-1.829-2.65-2.048-4.542-.528l-1.015.816-.996-.8C5.087 1.38 4.27.946 3.82.856 1.883.47.32 2.502 1.116 4.374c.366.86 5.184 6.689 5.53 6.689.106 0 1.366-1.375 2.8-3.055z"/></symbol><symbol viewBox="0 0 36.513 5.833" id="mango" xmlns="http://www.w3.org/2000/svg"><path d="M.182 5.61C.082 5.51 0 4.259 0 2.828 0 .393.035.225.535.225c.374 0 .93.607 1.859 2.03.728 1.116 1.284 2.15 1.235 2.298-.228.682-.743.345-1.555-1.018L1.19 2.053l-.133 1.778C.937 5.466.64 6.069.182 5.61zm5.209-.217c-.082-.213-.108-1.047-.058-1.852.099-1.594-.054-1.83-.522-.802-.332.727-.711.855-.92.309C3.671 2.48 5.213.225 5.82.225c.495 0 .529.177.529 2.778 0 2.319-.067 2.778-.405 2.778a.645.645 0 0 1-.554-.388zm2.017.223c0-.307 2.248-4.332 2.42-4.332.344 0 .48.847.216 1.342-.246.459-.18.51.662.51.515 0 .936-.064.936-.141 0-.078-.3-.733-.666-1.456-.64-1.262-.646-1.314-.142-1.314.39 0 .863.628 1.844 2.448 1.549 2.873 1.574 2.95.998 3.061-.278.054-.65-.266-1-.86-.528-.894-.632-.945-1.96-.945-1.323 0-1.434.053-1.95.926-.464.788-1.358 1.288-1.358.76zm7.673-2.593c0-2.5.05-2.798.469-2.798.603 0 5.088 4.494 5.088 5.099 0 .251-.093.457-.206.457-.112 0-1.092-.892-2.176-1.984-1.084-1.091-2.033-1.984-2.11-1.985-.076 0-.139.861-.139 1.914 0 1.612-.073 1.928-.463 2.004-.417.081-.463-.185-.463-2.707zm8.6 2.349c-.792-.406-1.456-1.087-1.456-1.493 0-.42.902-.204 1.502.36.976.916 3.79.674 3.79-.326 0-.119-.446-.253-.99-.298-.692-.058-1.017-.222-1.078-.545-.076-.4.132-.464 1.52-.464h1.606v.812c0 .446-.117 1.029-.259 1.295-.546 1.02-3.195 1.397-4.636.659zm7.672-.002c-1.128-.581-1.707-1.427-1.714-2.506-.007-1.162.504-1.915 1.679-2.472 2.332-1.107 5.195.26 5.195 2.479 0 .95-.731 2.026-1.682 2.478-1.158.549-1.229.543-1.229-.097 0-.29.158-.529.35-.529.194 0 .61-.276.927-.612 1.289-1.372.266-3.092-1.84-3.092-1.448 0-2.347.709-2.347 1.852 0 .793.86 1.852 1.505 1.852.19 0 .347.238.347.53 0 .634-.155.65-1.19.117zM20.161 3.347c-.468-.469-.42-3.122.057-3.122.275 0 .398.456.463 1.72.091 1.77.026 1.948-.52 1.402zm1.8-.985c0-.134.306-.608.68-1.053C23.804-.073 26.264-.385 27.756.66c.54.378.565.463.193.671-.261.147-.624.132-.94-.037-.284-.152-1.012-.276-1.618-.276-.883 0-1.249.157-1.843.794-.71.76-1.588 1.063-1.588.549z"/></symbol><symbol viewBox="0 0 2.911 5.29" id="next" xmlns="http://www.w3.org/2000/svg"><path d="M0 5.265c0-.146.536-.793 1.192-1.436l1.191-1.17L1.141 1.4C.458.705-.04.079.031.006c.073-.072.75.494 1.506 1.26l1.374 1.39-1.455 1.438C.655 4.884 0 5.412 0 5.265z"/></symbol><symbol viewBox="0 0 24.203 8.593" id="nike" xmlns="http://www.w3.org/2000/svg"><path d="M.75 7.822c-.745-.744-.822-.962-.707-1.99.169-1.494.989-3.152 2.296-4.641L3.384 0 2.96 1.199c-.758 2.15.168 3.696 2.214 3.696.62 0 5.137-1.076 10.039-2.391S24.16.148 24.203.191c.042.042-4.23 1.916-9.493 4.165C6.155 8.009 4.95 8.455 3.362 8.55c-1.704.103-1.811.073-2.613-.728z"/></symbol><symbol viewBox="0 0 13.204 13.193" id="optimization" xmlns="http://www.w3.org/2000/svg"><path d="M3.827 12.836c-.598-.21-1.525-.881-2.131-1.545C-.495 8.895-.57 5.707 1.512 3.403c.96-1.063 2.603-2.079 3.363-2.079.264 0 .407-.246.407-.698 0-.688.023-.696 1.438-.55 1.848.19 3.188.836 4.54 2.187 1.755 1.752 2.428 4.573 1.577 6.61-.25.6-.562.918-.896.918-.282 0-.72.327-.973.727-1.444 2.283-4.454 3.26-7.14 2.318zm3.698-.694c.983-.273 3.05-1.987 3.05-2.528 0-.132-1.192-.63-2.647-1.107L5.282 7.64V4.86c0-2.759-.004-2.777-.595-2.598C.827 3.432-.4 8.077 2.41 10.887c1.43 1.43 3.051 1.828 5.115 1.255zm4.89-5.078c.067-2.732-2.64-5.845-5.277-6.067l-.825-.07L6.3 3.97l-.013 3.043 2.739.962 2.738.963.319-.698c.175-.384.324-.913.33-1.176z"/></symbol><symbol viewBox="0 0 12.888 11.058" id="paint" xmlns="http://www.w3.org/2000/svg"><path d="M.836 10.628C-.1 10.167-.238 9.88.362 9.65c.212-.082.685-.624 1.052-1.205.468-.74.946-1.134 1.597-1.314.64-.177 2.042-1.311 4.512-3.652C9.493 1.612 11.31.049 11.562.008c.251-.042.69.095.978.305.852.623.297 1.42-3.436 4.941-2.191 2.067-3.488 3.49-3.573 3.922-.178.91-1.68 1.89-2.882 1.882-.524-.003-1.34-.197-1.813-.43zm3.09-.745c.971-.502 1.159-1.041.6-1.727-.394-.485-.553-.517-1.295-.257-.69.242-1.932 1.69-1.932 2.254 0 .282 1.947.082 2.627-.27zm1.818-2.576c.422-.422.402-.741-.047-.741s-1.018.646-.78.884c.253.253.468.216.827-.143zm3.818-3.58C10.984 2.31 12.147 1.06 12.147.949c0-.58-.912.06-3.272 2.298C6.625 5.38 5.999 6.3 6.8 6.3c.098 0 1.341-1.158 2.762-2.574z"/></symbol><symbol viewBox="0 0 6.273 6.504" id="paper" xmlns="http://www.w3.org/2000/svg"><path d="M2.396 5.364c-.349-.638-1.013-1.349-1.51-1.616C.4 3.485 0 3.198 0 3.108 0 2.886 6.117-.143 6.265.005c.119.119-1.048 2.523-2.485 5.122l-.762 1.377zm1.817-1.936c.588-1.123.97-2.142.847-2.265C4.84.943.794 2.785.794 3.104c0 .09.282.293.628.45.557.254.744.167 1.654-.772C3.64 2.2 4.339 1.6 4.63 1.45c.291-.15-.117.39-.907 1.202-1.328 1.365-1.413 1.526-1.13 2.147.168.37.361.672.428.672s.604-.919 1.192-2.042z"/></symbol><symbol viewBox="0 0 7.411 13.233" id="phone" xmlns="http://www.w3.org/2000/svg"><path d="M.53 12.702c-.495-.496-.529-.882-.529-6.085 0-6.92-.17-6.615 3.704-6.615C7.58.002 7.41-.302 7.41 6.617c0 6.919.17 6.614-3.704 6.614-2.293 0-2.716-.07-3.175-.529zm5.768-.582c.175-.175.318-.953.318-1.729V8.98l-2.845.075-2.844.075-.081 1.277c-.046.715.056 1.444.23 1.654.403.486 4.747.535 5.222.059zm-3.12-.87c-.47-.568-.121-1.248.59-1.146.678.096.962.966.426 1.305-.496.315-.64.292-1.015-.159zm3.438-5.692V2.912H.795v5.292h5.82zm0-3.783c0-.757-.66-.98-2.91-.98s-2.911.223-2.911.98c0 .261.699.344 2.91.344 2.212 0 2.91-.083 2.91-.344z"/></symbol><symbol viewBox="0 0 9.79 11.906" id="play" xmlns="http://www.w3.org/2000/svg"><path d="M0 5.953C0 .11.01 0 .548 0c.3 0 2.503 1.21 4.894 2.689C8.908 4.833 9.79 5.495 9.79 5.954c0 .459-.882 1.125-4.324 3.264-2.378 1.479-4.58 2.688-4.894 2.688-.57 0-.572-.03-.572-5.953zm4.907 2.203c1.965-1.19 3.48-2.243 3.368-2.342-.3-.261-6.959-4.227-7.099-4.227-.065 0-.118 1.965-.118 4.366s.062 4.366.138 4.366c.076 0 1.746-.974 3.711-2.163z"/></symbol><symbol viewBox="0 0 3.6 5.006" id="point" xmlns="http://www.w3.org/2000/svg"><path d="M.891 3.941C-.149 2.37-.267 1.421.478.63c.787-.839 1.836-.839 2.624 0 .468.498.573.836.45 1.449-.166.835-1.426 2.928-1.762 2.928-.107 0-.511-.48-.899-1.065zm1.65-.324c.87-1.41.961-2.19.33-2.822C2.567.492 2.081.243 1.79.243.922.243.127 1.23.332 2.053c.215.862 1.155 2.424 1.458 2.424.122 0 .46-.387.751-.86zm-1.457-1.41c-.088-.23.035-.612.273-.85.4-.401.465-.401.866 0 .238.238.36.62.273.85-.208.54-1.205.54-1.412 0zm1.174-.327c.059-.175-.138-.314-.446-.314-.55 0-.714.278-.37.623.246.245.687.078.816-.309z"/></symbol><symbol viewBox="0 0 2.911 5.29" id="prev" xmlns="http://www.w3.org/2000/svg"><path d="M1.374 4.024L0 2.633l1.456-1.438C2.256.405 2.91-.122 2.91.025c0 .146-.536.792-1.191 1.436L.528 2.63 1.77 3.89c.683.693 1.182 1.32 1.11 1.392-.073.073-.75-.494-1.506-1.259z"/></symbol><symbol viewBox="0 0 30.163 14.803" id="puma" xmlns="http://www.w3.org/2000/svg"><path d="M0 11.198V7.626l2.05.004c1.128.002 2.205.102 2.392.22.249.158.32.894.265 2.709L4.63 13.05l-1.257.08c-1.196.077-1.256.119-1.256.86 0 .733-.064.78-1.059.78H0zm2.646-.794c0-.97-.115-1.72-.265-1.72-.149 0-.264.75-.264 1.72s.115 1.72.264 1.72c.15 0 .265-.75.265-1.72zm2.76 4.02c-.072-.19-.098-1.768-.057-3.506l.075-3.16.992-.082.992-.082v3.191c0 2.66.066 3.191.397 3.191s.397-.529.397-3.175V7.626h1.852v7.144H7.797c-1.615 0-2.295-.098-2.39-.346zm5.5-3.143l.074-3.523 3.27-.074c2.185-.05 3.392.027 3.638.23.278.231.368 1.107.368 3.581v3.275H16.14v-3.065c0-2.151-.09-3.035-.298-2.965-.2.066-.282 1.066-.25 3.064l.047 2.966h-2.145v-3.065c0-2.334-.08-3.038-.331-2.954-.234.079-.342.953-.37 2.999l-.039 2.888-.96.082-.962.083zm7.88.214c0-2.493.088-3.349.372-3.584.23-.192 1.11-.28 2.315-.23l1.943.077.073 3.506.074 3.506h-.933c-.862 0-.934-.062-.934-.794 0-.53-.132-.794-.397-.794s-.397.265-.397.794c0 .75-.059.794-1.058.794h-1.059zm2.856-1.004c-.048-1.01-.204-1.674-.41-1.741-.241-.08-.33.357-.33 1.632 0 1.396.082 1.742.41 1.742.333 0 .395-.301.33-1.633zm3.229 3.47c0-.345-.112-.476-.306-.356-.193.12-.233.072-.108-.13.15-.244.284-.246.57-.008.43.356.5 1.039.108 1.039-.145 0-.264-.245-.264-.545zm2.434-2.419c-.175-.175-.317-.57-.317-.88 0-.31-.31-.851-.688-1.204-.378-.353-.964-1.185-1.302-1.848-.797-1.564-1.04-1.74-2.73-1.967-1.01-.135-1.664-.412-2.302-.971-.726-.638-.986-.731-1.409-.505-.376.202-.805.176-1.57-.094-.773-.273-1.13-.293-1.346-.076-.217.217-.383.207-.626-.04-.265-.269-.229-.41.183-.714.282-.209.788-.38 1.124-.38.336 0 .611-.118.611-.264 0-.146-.273-.265-.608-.265-.976 0-1.282-.49-.782-1.252.235-.359.664-.74.953-.846.711-.263 3.366 1.038 5.068 2.484 3.174 2.697 4.542 2.673 5.944-.104C28.564.524 30.163-.756 30.163.49c0 .332-.346.742-.9 1.07-.57.335-1.166 1.055-1.624 1.96-.398.787-.9 1.498-1.114 1.58-.3.115-.32.235-.087.516.167.201.375 1.003.462 1.783.087.779.298 1.595.469 1.814.495.633.85 1.68.74 2.182-.12.543-.363.587-.804.146z"/></symbol><symbol viewBox="0 0 8.386 6.83" id="quote" xmlns="http://www.w3.org/2000/svg"><path d="M1.22 6.696C.108 6.406-.378 3.98.333 2.278.775 1.221 2.03 0 2.675 0c.716 0 .558.464-.46 1.358C1.033 2.396.977 3.175 2.083 3.175c1.732 0 2.5 2.098 1.155 3.156-.684.537-1.082.61-2.019.365zm4.497 0c-1.11-.29-1.597-2.716-.886-4.418C5.273 1.221 6.528 0 7.173 0c.715 0 .558.464-.46 1.358C5.53 2.396 5.474 3.175 6.58 3.175c1.69 0 2.414 1.842 1.202 3.055-.626.626-1.07.726-2.066.466z"/></symbol><symbol viewBox="0 0 4.459 4.41" id="tel" xmlns="http://www.w3.org/2000/svg"><path d="M.202 3.985c-.3-.362-.278-.481.15-.794.277-.202.76-.368 1.074-.368.728 0 1.53-.88 1.566-1.72.04-.93.537-1.368 1.059-.935.224.186.408.48.408.651 0 .836-2.753 3.591-3.587 3.591-.174 0-.476-.191-.67-.425zm2.703-1.337C3.847 1.63 4.266.782 3.93.574c-.417-.257-.83.13-.672.63.191.602-1.459 2.228-2.035 2.006-.462-.177-.854.26-.601.67.22.357 1.403-.28 2.283-1.232z"/></symbol><symbol viewBox="0 0 12.982 13.237" id="tv" xmlns="http://www.w3.org/2000/svg"><path d="M3.897 13.067c-.276-.275.073-.624.625-.624.395 0 .514-.185.514-.794v-.794H3.22c-1.437 0-1.962-.114-2.514-.548L.01 9.759V5.412C.009-.43-.516.007 6.49.007c7.008 0 6.483-.437 6.483 5.405V9.76l-.698.548c-.525.413-1.08.548-2.249.548-1.547 0-1.551.002-1.551.794 0 .617.117.794.529.794.294 0 .529.176.529.397 0 .327-.48.397-2.734.397-1.504 0-2.81-.076-2.903-.17zm3.736-1.484c.078-.673.014-.728-.86-.728-.876 0-.943.058-.943.81 0 .756.059.806.86.728.716-.069.874-.204.943-.81zm4.035-1.795c.295-.158.512-.552.512-.932V8.2l-5.62.071c-5.314.068-5.623.1-5.716.583-.2 1.04.58 1.209 5.583 1.209 2.754 0 4.943-.115 5.241-.274zm.512-5.362c0-1.973-.108-3.098-.318-3.307C11.414.67 1.568.67 1.12 1.119c-.21.21-.317 1.334-.317 3.307v2.99H12.18z"/></symbol><symbol viewBox="0 0 3.704 2.908" id="twitter" xmlns="http://www.w3.org/2000/svg"><path d="M0 2.645c0-.145.192-.264.427-.264.394 0 .394-.052 0-.652C-.013 1.058-.153-.007.2.008c.109.005.43.183.712.397.654.495.941.492.941-.008 0-.277.28-.397.926-.397.51 0 .926.124.926.275 0 .547-1.045 2.31-1.465 2.47-.68.262-2.239.192-2.239-.1z"/></symbol><symbol viewBox="0 0 4.498 2.91" id="youtube" xmlns="http://www.w3.org/2000/svg"><path d="M0 1.455V0h4.498v2.91H0zm2.867.036a14.06 14.06 0 0 1-.552-.408c-.414-.316-.463-.28-.463.35s.057.672.552.407c.303-.162.512-.32.463-.349z"/></symbol><symbol viewBox="0 0 42.561 5.57" id="zara" xmlns="http://www.w3.org/2000/svg"><path d="M2.64 2.918L5.283.265H3.258c-1.966 0-2.03.02-2.289.727l-.266.728-.02-.86L.66 0h6.737L4.762 2.646 2.127 5.292h4.62v-.794c0-.437.126-.794.281-.794.158 0 .245.377.199.86l-.083.86-3.572.073L0 5.57zm7.831 2.453c.54-.084 1.007-.65 2.25-2.733.861-1.446 1.686-2.627 1.831-2.625.146.002.922 1.155 1.725 2.564 1.062 1.862 1.64 2.61 2.117 2.744.368.102-.332.177-1.593.17-1.237-.008-1.921-.064-1.521-.124.818-.124.882-.292.374-.986-.502-.687-3.025-.687-3.527 0-.508.694-.444.862.375.986.4.06-.047.11-.993.11-.945 0-1.413-.048-1.038-.106zm4.425-2.13c-.952-1.954-.972-1.965-1.61-.885-.62 1.05-.601 1.084.627 1.084.594 0 1.037-.09.983-.199zm7.792 2.126l.728-.11V.3l-.728-.11c-.4-.061.965-.129 3.033-.15C29.264.002 29.5.032 29.773.543c.423.79.213 1.667-.47 1.967-.328.144-.596.355-.596.468 0 .565 1.377 2.288 1.91 2.39.332.064-.014.132-.77.152l-1.374.036-.743-1.332c-.738-1.324-1.497-1.802-2.345-1.477-.304.117-.391.455-.331 1.284.073 1.011.162 1.143.875 1.294.438.093-.273.165-1.587.16-1.31-.005-2.054-.058-1.654-.118zm5.594-3.581c.533-.85-.111-1.38-1.785-1.468l-1.494-.08v2.17l1.494-.08c1.075-.057 1.576-.209 1.785-.542zm6.244 3.534c.464-.13 1.128-.943 2.245-2.752C37.644 1.156 38.444 0 38.55 0c.106 0 .881 1.185 1.723 2.634 1.2 2.062 1.676 2.656 2.194 2.738.363.058-.35.109-1.588.113-1.237.005-1.93-.067-1.54-.158.654-.155.683-.216.371-.793-.288-.535-.552-.63-1.815-.662-1.341-.032-1.517.03-1.898.675-.417.707-.415.71.446.817.475.06.09.115-.856.124-1.07.01-1.47-.054-1.06-.168zm4.038-2.832c-.236-.495-.515-.9-.62-.9-.148 0-1.3 1.713-1.3 1.935 0 .029.53.01 1.175-.04l1.174-.094z"/></symbol></svg>