<?xml version="1.0" standalone="no"?>
<!DOCTYPE svg PUBLIC "-//W3C//DTD SVG 20010904//EN"
 "http://www.w3.org/TR/2001/REC-SVG-20010904/DTD/svg10.dtd">
<svg version="1.0" xmlns="http://www.w3.org/2000/svg"
 width="700.000000pt" height="700.000000pt" viewBox="0 0 700.000000 700.000000"
 preserveAspectRatio="xMidYMid meet">
<metadata>
Created by potrace 1.14, written by Peter Selinger 2001-2017
</metadata>
<g transform="translate(0.000000,700.000000) scale(0.100000,-0.100000)"
fill="#000000" stroke="none">
<path d="M3325 6761 c-246 -65 -441 -209 -640 -472 -110 -146 -177 -263 -310
-545 l-20 -41 -65 13 c-74 16 -274 50 -339 58 -280 35 -584 25 -785 -25 -283
-71 -478 -197 -599 -386 -88 -137 -125 -269 -125 -458 -1 -378 191 -819 565
-1298 87 -111 88 -115 52 -147 -3 -3 -18 -22 -33 -42 l-28 -37 -76 6 c-99 7
-180 -10 -258 -52 -237 -131 -298 -446 -128 -657 l22 -27 -39 -113 c-75 -224
-98 -414 -70 -589 44 -273 201 -478 466 -612 51 -25 219 -82 271 -91 16 -3 40
-8 54 -11 102 -20 205 -28 355 -29 118 0 296 10 343 19 10 2 43 6 73 9 63 7
213 34 312 56 36 8 39 6 48 -18 18 -49 93 -206 138 -287 44 -80 160 -262 183
-287 7 -7 25 -30 40 -50 46 -60 179 -190 253 -245 64 -48 186 -114 260 -142
81 -29 163 -41 275 -37 133 5 145 7 248 45 242 89 456 284 651 594 58 92 157
281 201 384 21 49 23 51 51 43 16 -5 32 -9 34 -9 11 0 81 -13 96 -17 10 -3 19
-20 23 -46 17 -106 120 -239 225 -293 127 -64 271 -63 400 1 102 51 194 160
217 257 8 35 12 37 98 54 39 8 82 16 95 19 91 19 263 94 351 154 320 217 422
582 295 1054 -43 162 -162 413 -291 617 -69 109 -239 343 -286 393 -10 11 -18
23 -18 26 0 4 17 27 38 51 115 133 277 372 381 564 208 380 280 772 194 1055
-121 400 -523 624 -1123 624 -111 0 -294 -10 -335 -18 -11 -2 -47 -7 -80 -11
-33 -3 -105 -15 -160 -26 -55 -11 -111 -22 -125 -25 -14 -2 -31 -7 -37 -9 -15
-5 -35 23 -58 81 l-16 41 39 59 c57 88 73 141 73 245 0 190 -135 366 -321 415
-70 19 -171 19 -234 0 l-49 -15 -46 38 c-99 83 -215 145 -341 183 -95 29 -291
33 -385 9z m325 -221 c65 -18 124 -46 199 -95 l70 -46 -31 -56 c-165 -293 43
-653 377 -653 33 0 77 4 98 9 36 9 38 8 51 -22 l13 -32 -91 -26 c-155 -45
-459 -154 -569 -203 -18 -8 -85 -37 -149 -66 l-118 -51 -127 57 c-210 93 -669
263 -713 264 -8 0 -32 8 -52 18 l-38 17 73 145 c112 221 225 387 352 516 58
59 170 146 224 173 55 29 159 62 210 68 26 3 47 6 48 7 5 5 135 -14 173 -24z
m720 -224 c60 -30 108 -109 115 -191 3 -29 -19 -92 -43 -126 -122 -171 -391
-83 -392 129 0 102 76 194 174 209 17 3 32 6 34 8 6 6 79 -13 112 -29z m-2520
-751 c67 -8 246 -33 280 -40 74 -14 136 -28 141 -31 4 -2 -7 -43 -23 -91 -71
-211 -164 -597 -192 -798 -3 -22 -11 -78 -17 -124 -12 -83 -17 -93 -65 -131
-38 -30 -189 -154 -200 -165 -6 -5 -37 -32 -70 -60 -32 -27 -151 -141 -264
-252 -112 -112 -207 -199 -211 -195 -33 35 -217 291 -265 369 -240 386 -342
733 -293 996 24 133 119 280 229 358 88 62 266 133 367 145 20 3 39 6 42 9 4
2 45 7 91 10 47 4 86 9 88 10 6 5 308 -3 362 -10z m3775 0 c258 -34 471 -128
575 -255 39 -46 103 -150 94 -150 -4 0 -2 -6 3 -12 33 -43 52 -284 31 -403
-41 -237 -173 -531 -366 -810 -45 -65 -164 -226 -192 -258 -3 -4 -89 75 -191
176 -101 100 -206 203 -234 228 -61 55 -249 214 -296 251 -71 55 -76 61 -82
118 -4 30 -9 66 -12 80 -2 13 -7 42 -10 65 -3 22 -10 63 -15 90 -5 28 -12 61
-14 75 -3 14 -7 34 -9 45 -2 11 -8 38 -12 60 -30 149 -99 405 -150 560 -13 38
-23 70 -22 71 1 1 16 4 32 7 17 3 82 14 145 26 170 30 176 31 290 37 58 4 107
8 109 10 5 5 270 -4 326 -11z m-3025 -154 c267 -82 648 -227 633 -242 -5 -4
-48 -29 -98 -55 -215 -113 -568 -330 -764 -469 -51 -36 -94 -65 -96 -65 -2 0
-2 8 0 18 2 9 11 53 19 97 29 154 28 149 70 320 39 159 123 425 134 425 4 0
50 -13 102 -29z m1948 -93 c36 -108 95 -317 108 -381 2 -12 6 -31 8 -42 13
-59 54 -264 58 -287 4 -18 1 -25 -6 -21 -6 4 -65 44 -131 89 -230 156 -515
330 -723 440 -51 26 -91 53 -89 58 5 15 274 120 477 187 102 34 196 65 210 69
14 5 30 9 36 9 7 1 30 -54 52 -121z m-910 -333 c342 -174 672 -376 991 -609
69 -50 128 -93 132 -96 4 -3 10 -34 14 -70 3 -36 8 -76 10 -90 27 -173 27
-1060 0 -1240 -2 -14 -7 -54 -10 -90 -4 -36 -7 -66 -8 -66 -1 -1 -54 -39 -117
-86 -288 -212 -678 -453 -987 -610 l-163 -83 -147 75 c-82 41 -197 103 -257
137 -60 35 -110 63 -112 63 -1 0 -58 34 -126 76 -211 131 -405 264 -625 428 0
0 -4 30 -7 66 -4 36 -9 81 -11 100 -2 19 -7 82 -11 140 -4 58 -8 128 -10 155
-4 69 -4 543 1 635 11 241 31 451 44 460 4 3 63 46 132 96 222 162 461 317
699 452 151 86 412 221 428 222 7 0 70 -29 140 -65z m-1655 -1027 c-10 -158
-10 -733 0 -908 l8 -134 -28 24 c-15 14 -30 27 -33 30 -3 3 -39 34 -80 69
-109 94 -460 444 -460 459 0 20 294 316 455 458 77 68 141 124 143 124 2 0 -1
-55 -5 -122z m3426 -245 l214 -212 -204 -203 c-112 -112 -222 -219 -244 -238
-22 -19 -69 -59 -103 -89 l-64 -54 9 129 c10 167 10 776 -1 923 l-8 114 94
-79 c51 -43 189 -174 307 -291z m-3979 -575 c230 -227 306 -295 566 -508 26
-21 32 -35 37 -80 4 -30 9 -66 12 -80 2 -13 7 -42 10 -63 4 -21 13 -75 21
-120 8 -45 18 -95 20 -112 3 -16 17 -77 31 -135 13 -58 26 -115 29 -127 5 -25
72 -256 102 -349 l19 -61 -61 -12 c-95 -18 -104 -20 -215 -36 -462 -69 -852
-20 -1086 136 -87 59 -142 119 -190 210 -89 169 -90 405 -2 659 21 61 24 65
52 63 160 -10 206 -4 290 38 144 71 233 204 243 361 7 116 -27 227 -92 306
-15 16 -26 33 -26 36 0 6 41 66 45 66 0 0 88 -87 195 -192z m4400 107 c272
-351 440 -682 494 -970 23 -123 16 -311 -16 -396 -61 -165 -161 -270 -331
-349 -64 -30 -204 -73 -269 -83 -36 -5 -36 -5 -67 56 -132 267 -483 329 -693
122 -27 -25 -60 -67 -75 -93 -14 -26 -27 -48 -28 -50 -2 -3 -90 15 -112 23 -8
3 -1 35 23 107 33 97 127 448 137 513 3 17 12 66 21 110 9 44 18 94 21 110 16
94 26 153 29 175 3 14 5 39 5 55 1 26 16 42 109 117 59 48 125 103 147 122 22
20 63 55 91 78 28 24 138 131 245 239 107 107 197 195 201 195 3 -1 34 -37 68
-81z m-4877 -88 c116 -49 169 -178 119 -290 -70 -157 -280 -177 -377 -35 -74
110 -31 263 90 319 47 22 123 24 168 6z m1517 -869 c224 -150 473 -300 690
-416 36 -19 69 -38 73 -42 7 -6 -220 -102 -358 -150 -81 -29 -368 -120 -377
-120 -6 0 -50 129 -91 265 -23 76 -88 344 -102 420 -26 138 -31 174 -26 171 3
-2 89 -60 191 -128z m2233 5 c-33 -181 -96 -428 -148 -589 -25 -75 -47 -139
-49 -141 -5 -5 -137 34 -286 84 -167 56 -462 175 -453 183 4 4 49 29 98 56
220 117 527 305 749 459 60 41 110 75 111 75 1 0 -9 -57 -22 -127z m-1074
-649 c227 -101 495 -201 681 -255 58 -17 108 -33 112 -35 3 -2 -5 -28 -19 -57
-13 -28 -37 -77 -51 -107 -24 -51 -127 -232 -144 -255 -4 -5 -36 -48 -70 -94
-193 -261 -413 -401 -633 -402 -311 -1 -616 265 -852 745 -35 72 -69 139 -74
149 -8 14 -4 19 16 27 15 6 30 10 34 10 4 0 83 25 177 56 185 61 432 157 589
228 55 25 102 46 104 46 1 0 60 -25 130 -56z m1722 -141 c199 -108 126 -402
-100 -406 -98 -1 -185 64 -211 158 -51 181 146 338 311 248z"/>
<path d="M3343 4358 c-195 -39 -347 -121 -475 -255 -280 -295 -322 -736 -101
-1077 210 -325 606 -472 978 -364 428 124 698 563 614 998 -91 474 -554 792
-1016 698z m314 -222 c133 -35 210 -80 313 -185 82 -84 135 -177 165 -291 23
-86 23 -235 1 -320 -66 -253 -284 -451 -536 -487 -98 -14 -223 -5 -300 22
-317 112 -500 416 -444 738 49 282 287 507 569 539 60 7 174 -1 232 -16z"/>
</g>
</svg>
